<?xml version="1.0" standalone="no"?><!DOCTYPE svg PUBLIC "-//W3C//DTD SVG 1.1//EN" "http://www.w3.org/Graphics/SVG/1.1/DTD/svg11.dtd"><svg t="1564387781424" class="icon" viewBox="0 0 1024 1024" version="1.1" xmlns="http://www.w3.org/2000/svg" p-id="4198" width="32" height="32" xmlns:xlink="http://www.w3.org/1999/xlink"><defs><style type="text/css"></style></defs><path d="M921.325549 972.487789 102.674451 972.487789c-56.514131 0-102.32755-45.819558-102.32755-102.334713L0.346901 307.337737l1023.306198 0 0 562.815339C1023.653099 926.668231 977.840704 972.487789 921.325549 972.487789L921.325549 972.487789zM665.499 460.836737c0-28.257577-22.913872-51.17145-51.17145-51.17145L409.67245 409.665287c-28.257577 0-51.17145 22.913872-51.17145 51.17145 0 28.257577 22.913872 51.163263 51.17145 51.163263l25.577538 0 115.120924 0L409.67245 793.403065c0 14.134929 11.45489 25.585725 25.577538 25.585725l51.164287 0c14.134929 0 25.585725-11.450796 25.585725-25.585725l153.499-306.98879L665.499 460.836737 665.499 460.836737zM0.346901 205.010187c0-56.522318 45.813419-102.334713 102.32755-102.334713L210.16765 102.675474c10.619872-29.66053 38.275745-51.163263 71.591525-51.163263 33.314757 0 60.963467 21.502733 71.583338 51.163263l317.313949 0c10.619872-29.66053 38.275745-51.163263 71.589478-51.163263 33.31578 0 60.965513 21.502733 71.585385 51.163263l107.4932 0c56.514131 0 102.32755 45.812395 102.32755 102.334713l0 51.163263-1023.306198 0L0.345877 205.010187 0.346901 205.010187zM716.662263 205.010187l51.164287 0L767.82655 102.675474l-51.164287 0L716.662263 205.010187 716.662263 205.010187zM256.17345 205.010187l51.164287 0L307.337737 102.675474l-51.164287 0L256.17345 205.010187 256.17345 205.010187zM256.17345 205.010187" p-id="4199" fill="#19be6b"></path></svg>